<?xml version="1.0" encoding="UTF-8"?>
<svg id="Layer_1" xmlns="http://www.w3.org/2000/svg" version="1.1" xmlns:xlink="http://www.w3.org/1999/xlink" viewBox="0 0 1787.71 660.86">
  <!-- Generator: Adobe Illustrator 30.1.0, SVG Export Plug-In . SVG Version: 2.1.1 Build 136)  -->
  <defs>
    <style>
      .st0 {
        fill: url(#linear-gradient2);
      }

      .st1 {
        fill: url(#linear-gradient36);
      }

      .st2 {
        fill: url(#linear-gradient34);
      }

      .st3 {
        fill: url(#linear-gradient33);
      }

      .st4 {
        fill: url(#linear-gradient10);
      }

      .st5 {
        fill: url(#linear-gradient32);
      }

      .st6 {
        fill: url(#linear-gradient21);
      }

      .st7 {
        fill: url(#linear-gradient37);
      }

      .st8 {
        fill: url(#linear-gradient27);
      }

      .st9 {
        fill: url(#linear-gradient35);
      }

      .st10 {
        fill: url(#linear-gradient26);
      }

      .st11 {
        fill: url(#linear-gradient1);
      }

      .st12 {
        fill: url(#linear-gradient9);
      }

      .st13 {
        fill: url(#linear-gradient18);
      }

      .st14 {
        fill: url(#linear-gradient23);
      }

      .st15 {
        fill: url(#linear-gradient8);
      }

      .st16 {
        fill: url(#linear-gradient11);
      }

      .st17 {
        fill: url(#linear-gradient16);
      }

      .st18 {
        fill: url(#linear-gradient24);
      }

      .st19 {
        fill: url(#linear-gradient30);
      }

      .st20 {
        fill: url(#linear-gradient22);
      }

      .st21, .st22 {
        isolation: isolate;
      }

      .st23 {
        fill: url(#linear-gradient29);
      }

      .st24 {
        fill: url(#linear-gradient19);
      }

      .st25 {
        fill: url(#linear-gradient12);
      }

      .st26 {
        fill: url(#linear-gradient28);
      }

      .st27 {
        fill: url(#linear-gradient7);
      }

      .st28 {
        fill: url(#linear-gradient20);
      }

      .st29 {
        fill: url(#linear-gradient4);
      }

      .st30 {
        fill: url(#linear-gradient31);
      }

      .st31 {
        fill: url(#linear-gradient14);
      }

      .st32 {
        fill: url(#linear-gradient5);
      }

      .st33 {
        fill: url(#linear-gradient3);
      }

      .st34 {
        fill: url(#linear-gradient25);
      }

      .st35 {
        display: none;
      }

      .st36 {
        fill: url(#linear-gradient15);
      }

      .st37 {
        fill: url(#linear-gradient17);
      }

      .st38 {
        fill: url(#linear-gradient6);
      }

      .st39 {
        fill: url(#linear-gradient13);
      }

      .st40 {
        fill: url(#linear-gradient);
      }

      .st22 {
        fill: #231f20;
        font-family: BarlowCondensed-Regular, 'Barlow Condensed';
        font-size: 140px;
      }
    </style>
    <linearGradient id="linear-gradient" x1="131.54" y1="394.94" x2="120.2" y2="669.98" gradientTransform="translate(0 738.43) scale(1 -1)" gradientUnits="userSpaceOnUse">
      <stop offset="0" stop-color="#3a7aa6"/>
      <stop offset=".47" stop-color="#3e927f"/>
      <stop offset="1" stop-color="#4488a5"/>
    </linearGradient>
    <linearGradient id="linear-gradient1" x1="286.57" y1="401.33" x2="275.23" y2="676.37" gradientTransform="translate(0 738.43) scale(1 -1)" gradientUnits="userSpaceOnUse">
      <stop offset="0" stop-color="#3a7aa6"/>
      <stop offset=".47" stop-color="#3e927f"/>
      <stop offset="1" stop-color="#4488a5"/>
    </linearGradient>
    <linearGradient id="linear-gradient2" x1="440.31" y1="407.67" x2="428.97" y2="682.71" gradientTransform="translate(0 738.43) scale(1 -1)" gradientUnits="userSpaceOnUse">
      <stop offset="0" stop-color="#3a7aa6"/>
      <stop offset=".47" stop-color="#3e927f"/>
      <stop offset="1" stop-color="#4488a5"/>
    </linearGradient>
    <linearGradient id="linear-gradient3" x1="659.18" y1="416.7" x2="647.84" y2="691.74" gradientTransform="translate(0 738.43) scale(1 -1)" gradientUnits="userSpaceOnUse">
      <stop offset="0" stop-color="#3a7aa6"/>
      <stop offset=".47" stop-color="#3e927f"/>
      <stop offset="1" stop-color="#4488a5"/>
    </linearGradient>
    <linearGradient id="linear-gradient4" x1="880.17" y1="425.81" x2="868.83" y2="700.85" gradientTransform="translate(0 738.43) scale(1 -1)" gradientUnits="userSpaceOnUse">
      <stop offset="0" stop-color="#3a7aa6"/>
      <stop offset=".47" stop-color="#3e927f"/>
      <stop offset="1" stop-color="#4488a5"/>
    </linearGradient>
    <linearGradient id="linear-gradient5" x1="1136.86" y1="436.39" x2="1125.52" y2="711.43" gradientTransform="translate(0 738.43) scale(1 -1)" gradientUnits="userSpaceOnUse">
      <stop offset="0" stop-color="#3a7aa6"/>
      <stop offset=".47" stop-color="#3e927f"/>
      <stop offset="1" stop-color="#4488a5"/>
    </linearGradient>
    <linearGradient id="linear-gradient6" x1="1383.78" y1="446.57" x2="1372.44" y2="721.61" gradientTransform="translate(0 738.43) scale(1 -1)" gradientUnits="userSpaceOnUse">
      <stop offset="0" stop-color="#3a7aa6"/>
      <stop offset=".47" stop-color="#3e927f"/>
      <stop offset="1" stop-color="#4488a5"/>
    </linearGradient>
    <linearGradient id="linear-gradient7" x1="1637.86" y1="457.05" x2="1626.52" y2="732.09" gradientTransform="translate(0 738.43) scale(1 -1)" gradientUnits="userSpaceOnUse">
      <stop offset="0" stop-color="#3a7aa6"/>
      <stop offset=".47" stop-color="#3e927f"/>
      <stop offset="1" stop-color="#4488a5"/>
    </linearGradient>
    <linearGradient id="linear-gradient8" x1="225.25" y1="73.27" x2="214.15" y2="342.43" gradientTransform="translate(0 738.43) scale(1 -1)" gradientUnits="userSpaceOnUse">
      <stop offset="0" stop-color="#3a7aa6"/>
      <stop offset=".47" stop-color="#3e927f"/>
      <stop offset="1" stop-color="#4488a5"/>
    </linearGradient>
    <linearGradient id="linear-gradient9" x1="454.63" y1="82.73" x2="443.53" y2="351.89" gradientTransform="translate(0 738.43) scale(1 -1)" gradientUnits="userSpaceOnUse">
      <stop offset="0" stop-color="#3a7aa6"/>
      <stop offset=".47" stop-color="#3e927f"/>
      <stop offset="1" stop-color="#4488a5"/>
    </linearGradient>
    <linearGradient id="linear-gradient10" x1="666" y1="91.45" x2="654.9" y2="360.61" gradientTransform="translate(0 738.43) scale(1 -1)" gradientUnits="userSpaceOnUse">
      <stop offset="0" stop-color="#3a7aa6"/>
      <stop offset=".47" stop-color="#3e927f"/>
      <stop offset="1" stop-color="#4488a5"/>
    </linearGradient>
    <linearGradient id="linear-gradient11" x1="873.06" y1="99.99" x2="861.96" y2="369.15" gradientTransform="translate(0 738.43) scale(1 -1)" gradientUnits="userSpaceOnUse">
      <stop offset="0" stop-color="#3a7aa6"/>
      <stop offset=".47" stop-color="#3e927f"/>
      <stop offset="1" stop-color="#4488a5"/>
    </linearGradient>
    <linearGradient id="linear-gradient12" x1="1127.15" y1="110.47" x2="1116.05" y2="379.63" gradientTransform="translate(0 738.43) scale(1 -1)" gradientUnits="userSpaceOnUse">
      <stop offset="0" stop-color="#3a7aa6"/>
      <stop offset=".47" stop-color="#3e927f"/>
      <stop offset="1" stop-color="#4488a5"/>
    </linearGradient>
    <linearGradient id="linear-gradient13" x1="1374.71" y1="120.68" x2="1363.61" y2="389.84" gradientTransform="translate(0 738.43) scale(1 -1)" gradientUnits="userSpaceOnUse">
      <stop offset="0" stop-color="#3a7aa6"/>
      <stop offset=".47" stop-color="#3e927f"/>
      <stop offset="1" stop-color="#4488a5"/>
    </linearGradient>
    <linearGradient id="linear-gradient14" x1="1580.58" y1="129.17" x2="1569.48" y2="398.33" gradientTransform="translate(0 738.43) scale(1 -1)" gradientUnits="userSpaceOnUse">
      <stop offset="0" stop-color="#3a7aa6"/>
      <stop offset=".47" stop-color="#3e927f"/>
      <stop offset="1" stop-color="#4488a5"/>
    </linearGradient>
    <linearGradient id="linear-gradient15" x1="122.59" y1="-36.72" x2="197.5" y2="-36.72" gradientTransform="translate(0 738.43) scale(1 -1)" gradientUnits="userSpaceOnUse">
      <stop offset="0" stop-color="#3a7aa6"/>
      <stop offset=".47" stop-color="#3e927f"/>
      <stop offset="1" stop-color="#4488a5"/>
    </linearGradient>
    <linearGradient id="linear-gradient16" x1="210.51" y1="-35.95" x2="228.85" y2="-35.95" gradientTransform="translate(0 738.43) scale(1 -1)" gradientUnits="userSpaceOnUse">
      <stop offset="0" stop-color="#3a7aa6"/>
      <stop offset=".47" stop-color="#3e927f"/>
      <stop offset="1" stop-color="#4488a5"/>
    </linearGradient>
    <linearGradient id="linear-gradient17" x1="247.05" y1="-49.74" x2="287.04" y2="-49.74" gradientTransform="translate(0 738.43) scale(1 -1)" gradientUnits="userSpaceOnUse">
      <stop offset="0" stop-color="#3a7aa6"/>
      <stop offset=".47" stop-color="#3e927f"/>
      <stop offset="1" stop-color="#4488a5"/>
    </linearGradient>
    <linearGradient id="linear-gradient18" x1="295.21" y1="-40.78" x2="335.67" y2="-40.78" gradientTransform="translate(0 738.43) scale(1 -1)" gradientUnits="userSpaceOnUse">
      <stop offset="0" stop-color="#3a7aa6"/>
      <stop offset=".47" stop-color="#3e927f"/>
      <stop offset="1" stop-color="#4488a5"/>
    </linearGradient>
    <linearGradient id="linear-gradient19" x1="351.21" y1="-50.58" x2="407.91" y2="-50.58" gradientTransform="translate(0 738.43) scale(1 -1)" gradientUnits="userSpaceOnUse">
      <stop offset="0" stop-color="#3a7aa6"/>
      <stop offset=".47" stop-color="#3e927f"/>
      <stop offset="1" stop-color="#4488a5"/>
    </linearGradient>
    <linearGradient id="linear-gradient20" x1="425.41" y1="-50.09" x2="487.71" y2="-50.09" gradientTransform="translate(0 738.43) scale(1 -1)" gradientUnits="userSpaceOnUse">
      <stop offset="0" stop-color="#3a7aa6"/>
      <stop offset=".47" stop-color="#3e927f"/>
      <stop offset="1" stop-color="#4488a5"/>
    </linearGradient>
    <linearGradient id="linear-gradient21" x1="502.27" y1="-50.16" x2="557.85" y2="-50.16" gradientTransform="translate(0 738.43) scale(1 -1)" gradientUnits="userSpaceOnUse">
      <stop offset="0" stop-color="#3a7aa6"/>
      <stop offset=".47" stop-color="#3e927f"/>
      <stop offset="1" stop-color="#4488a5"/>
    </linearGradient>
    <linearGradient id="linear-gradient22" x1="571.43" y1="-50.09" x2="633.73" y2="-50.09" gradientTransform="translate(0 738.43) scale(1 -1)" gradientUnits="userSpaceOnUse">
      <stop offset="0" stop-color="#3a7aa6"/>
      <stop offset=".47" stop-color="#3e927f"/>
      <stop offset="1" stop-color="#4488a5"/>
    </linearGradient>
    <linearGradient id="linear-gradient23" x1="680.91" y1="-36.72" x2="751.61" y2="-36.72" gradientTransform="translate(0 738.43) scale(1 -1)" gradientUnits="userSpaceOnUse">
      <stop offset="0" stop-color="#3a7aa6"/>
      <stop offset=".47" stop-color="#3e927f"/>
      <stop offset="1" stop-color="#4488a5"/>
    </linearGradient>
    <linearGradient id="linear-gradient24" x1="770.79" y1="-50.09" x2="831.13" y2="-50.09" gradientTransform="translate(0 738.43) scale(1 -1)" gradientUnits="userSpaceOnUse">
      <stop offset="0" stop-color="#3a7aa6"/>
      <stop offset=".47" stop-color="#3e927f"/>
      <stop offset="1" stop-color="#4488a5"/>
    </linearGradient>
    <linearGradient id="linear-gradient25" x1="841.63" y1="-40.78" x2="882.09" y2="-40.78" gradientTransform="translate(0 738.43) scale(1 -1)" gradientUnits="userSpaceOnUse">
      <stop offset="0" stop-color="#3a7aa6"/>
      <stop offset=".47" stop-color="#3e927f"/>
      <stop offset="1" stop-color="#4488a5"/>
    </linearGradient>
    <linearGradient id="linear-gradient26" x1="895.67" y1="-50.16" x2="951.25" y2="-50.16" gradientTransform="translate(0 738.43) scale(1 -1)" gradientUnits="userSpaceOnUse">
      <stop offset="0" stop-color="#3a7aa6"/>
      <stop offset=".47" stop-color="#3e927f"/>
      <stop offset="1" stop-color="#4488a5"/>
    </linearGradient>
    <linearGradient id="linear-gradient27" x1="964.83" y1="-50.09" x2="1027.13" y2="-50.09" gradientTransform="translate(0 738.43) scale(1 -1)" gradientUnits="userSpaceOnUse">
      <stop offset="0" stop-color="#3a7aa6"/>
      <stop offset=".47" stop-color="#3e927f"/>
      <stop offset="1" stop-color="#4488a5"/>
    </linearGradient>
    <linearGradient id="linear-gradient28" x1="1037.91" y1="-36.72" x2="1079.49" y2="-36.72" gradientTransform="translate(0 738.43) scale(1 -1)" gradientUnits="userSpaceOnUse">
      <stop offset="0" stop-color="#3a7aa6"/>
      <stop offset=".47" stop-color="#3e927f"/>
      <stop offset="1" stop-color="#4488a5"/>
    </linearGradient>
    <linearGradient id="linear-gradient29" x1="1089.43" y1="-40.78" x2="1129.89" y2="-40.78" gradientTransform="translate(0 738.43) scale(1 -1)" gradientUnits="userSpaceOnUse">
      <stop offset="0" stop-color="#3a7aa6"/>
      <stop offset=".47" stop-color="#3e927f"/>
      <stop offset="1" stop-color="#4488a5"/>
    </linearGradient>
    <linearGradient id="linear-gradient30" x1="1175.25" y1="-36.65" x2="1243.15" y2="-36.65" gradientTransform="translate(0 738.43) scale(1 -1)" gradientUnits="userSpaceOnUse">
      <stop offset="0" stop-color="#3a7aa6"/>
      <stop offset=".47" stop-color="#3e927f"/>
      <stop offset="1" stop-color="#4488a5"/>
    </linearGradient>
    <linearGradient id="linear-gradient31" x1="1251.83" y1="-50.09" x2="1312.14" y2="-50.09" gradientTransform="translate(0 738.43) scale(1 -1)" gradientUnits="userSpaceOnUse">
      <stop offset="0" stop-color="#3a7aa6"/>
      <stop offset=".47" stop-color="#3e927f"/>
      <stop offset="1" stop-color="#4488a5"/>
    </linearGradient>
    <linearGradient id="linear-gradient32" x1="1320.85" y1="-40.78" x2="1361.31" y2="-40.78" gradientTransform="translate(0 738.43) scale(1 -1)" gradientUnits="userSpaceOnUse">
      <stop offset="0" stop-color="#3a7aa6"/>
      <stop offset=".47" stop-color="#3e927f"/>
      <stop offset="1" stop-color="#4488a5"/>
    </linearGradient>
    <linearGradient id="linear-gradient33" x1="1376.71" y1="-76.06" x2="1397.01" y2="-76.06" gradientTransform="translate(0 738.43) scale(1 -1)" gradientUnits="userSpaceOnUse">
      <stop offset="0" stop-color="#3a7aa6"/>
      <stop offset=".47" stop-color="#3e927f"/>
      <stop offset="1" stop-color="#4488a5"/>
    </linearGradient>
    <linearGradient id="linear-gradient34" x1="1445.45" y1="-36.72" x2="1509.15" y2="-36.72" gradientTransform="translate(0 738.43) scale(1 -1)" gradientUnits="userSpaceOnUse">
      <stop offset="0" stop-color="#3a7aa6"/>
      <stop offset=".47" stop-color="#3e927f"/>
      <stop offset="1" stop-color="#4488a5"/>
    </linearGradient>
    <linearGradient id="linear-gradient35" x1="1518.25" y1="-40.78" x2="1558.71" y2="-40.78" gradientTransform="translate(0 738.43) scale(1 -1)" gradientUnits="userSpaceOnUse">
      <stop offset="0" stop-color="#3a7aa6"/>
      <stop offset=".47" stop-color="#3e927f"/>
      <stop offset="1" stop-color="#4488a5"/>
    </linearGradient>
    <linearGradient id="linear-gradient36" x1="1572.01" y1="-37.28" x2="1631.51" y2="-37.28" gradientTransform="translate(0 738.43) scale(1 -1)" gradientUnits="userSpaceOnUse">
      <stop offset="0" stop-color="#3a7aa6"/>
      <stop offset=".47" stop-color="#3e927f"/>
      <stop offset="1" stop-color="#4488a5"/>
    </linearGradient>
    <linearGradient id="linear-gradient37" x1="1648.59" y1="-76.06" x2="1668.89" y2="-76.06" gradientTransform="translate(0 738.43) scale(1 -1)" gradientUnits="userSpaceOnUse">
      <stop offset="0" stop-color="#3a7aa6"/>
      <stop offset=".47" stop-color="#3e927f"/>
      <stop offset="1" stop-color="#4488a5"/>
    </linearGradient>
  </defs>
  <g>
    <path class="st40" d="M44.89,44.52l49.3,136.14-18.4,50.41L7.36,44.52h37.53ZM231.07,44.52l-94.93,257.55h-34.22l-1.1-2.94L193.54,44.52h37.53Z"/>
    <path class="st11" d="M297.29,44.52v41.58h-34.95v-41.58h34.95ZM297.29,122.16v179.92h-34.95V122.16h34.95Z"/>
    <path class="st0" d="M441.15,210.46h-60.71v91.62h-35.32v-126.57h96.4c30.91,0,48.2-22.81,48.2-47.83s-17.29-48.2-48.2-48.2h-96.4v-34.95h96.4c52.25,0,84.26,37.16,84.26,83.15,0,33.85-17.66,62.92-48.2,75.79l55.56,98.61h-40.1l-51.88-91.62h0Z"/>
    <path class="st33" d="M741.74,44.52v34.95h-186.54v-34.95h186.54ZM631,129.52h34.95v172.56h-34.95v-172.56Z"/>
    <path class="st29" d="M810.17,86.1h-35.32v-41.58h35.32v41.58h0ZM934.9,199.42l34.22,15.09c-5.89,59.24-45.26,90.14-96.77,90.14-55.93,0-97.5-36.79-97.5-106.33v-76.16h35.32v75.06c0,52.25,26.12,72.48,62.18,72.48s61.81-19.5,62.55-70.28h0ZM969.86,44.52v126.57l-34.95-15.09V44.52h34.95Z"/>
    <path class="st32" d="M1256.47,173.67c0,72.48-52.25,130.98-125.1,130.98s-124.73-58.87-124.73-131.35,52.25-130.98,124.73-130.98,125.1,58.5,125.1,131.35ZM1220.42,173.67c0-53.35-35.69-96.4-89.04-96.4s-88.67,42.68-88.67,96.03,35.69,96.4,88.67,96.4,89.04-43.05,89.04-96.03ZM1153.82,173.67c0,12.14-9.93,22.08-22.44,22.08s-22.08-9.93-22.08-22.08,9.93-22.44,22.08-22.44,22.44,9.93,22.44,22.44Z"/>
    <path class="st38" d="M1317.54,233.27c4.42,9.93,16.19,21.71,28.33,27.59l-15.45,32.38c-22.08-10.3-38.63-27.96-46.36-45.99l33.48-13.98h0ZM1479.07,231.07c0,40.1-32.01,74.69-91.25,74.69-6.25,0-12.14-.37-17.66-1.1l16.56-34.59c30.91.37,55.19-14.72,55.19-37.9s-23.18-32.01-66.96-44.52c-51.51-14.72-85.36-30.54-83.89-75.06,1.1-41.94,35.32-70.64,88.67-70.64,12.14,0,22.81,1.47,32.75,4.42l-19.87,31.64c-3.31-.37-8.09-.74-11.77-.74-37.9,0-52.25,18.4-52.25,36.43,0,19.87,18.03,28.7,58.87,40.1,52.25,14.72,91.62,30.91,91.62,77.27h-.01Z"/>
    <path class="st27" d="M1758.33,173.67c0,72.48-52.25,130.98-125.1,130.98s-124.73-58.87-124.73-131.35,52.25-130.98,124.73-130.98,125.1,58.5,125.1,131.35ZM1722.27,173.67c0-53.35-35.69-96.4-89.04-96.4s-88.67,42.68-88.67,96.03,35.69,96.4,88.67,96.4,89.04-43.05,89.04-96.03ZM1655.67,173.67c0,12.14-9.93,22.08-22.44,22.08s-22.08-9.93-22.08-22.08,9.93-22.44,22.08-22.44,22.44,9.93,22.44,22.44Z"/>
  </g>
  <g>
    <path class="st15" d="M316.06,374.07v260.13h-3.31l-156.74-171.83v169.25h-34.95v-259.76h2.94l156.74,173.3v-171.09h35.32,0Z"/>
    <path class="st12" d="M532.77,409.03h-168.88v-34.95h168.88v34.95ZM521.36,519.78h-157.48v-34.22h157.48v34.22h0ZM534.97,596.31v35.32h-171.09v-35.32h171.09Z"/>
    <path class="st4" d="M748.74,374.07v34.95h-186.54v-34.95h186.54ZM637.99,459.07h34.95v172.56h-34.95v-172.56Z"/>
    <path class="st16" d="M806.13,562.82c4.42,9.93,16.19,21.71,28.33,27.59l-15.45,32.38c-22.08-10.3-38.63-27.96-46.36-45.99l33.48-13.98h0ZM967.65,560.62c0,40.11-32.01,74.69-91.25,74.69-6.25,0-12.14-.37-17.66-1.1l16.56-34.59c30.91.37,55.19-14.72,55.19-37.9s-23.18-32.01-66.96-44.52c-51.51-14.72-85.36-30.54-83.89-75.06,1.1-41.95,35.32-70.64,88.67-70.64,12.14,0,22.81,1.47,32.75,4.42l-19.87,31.64c-3.31-.37-8.09-.74-11.77-.74-37.9,0-52.25,18.4-52.25,36.43,0,19.87,18.03,28.7,58.87,40.1,52.25,14.72,91.62,30.91,91.62,77.27h0Z"/>
    <path class="st25" d="M1246.91,503.22c0,72.48-52.25,130.98-125.1,130.98s-124.73-58.87-124.73-131.35,52.25-130.99,124.73-130.99,125.1,58.5,125.1,131.35h0ZM1210.85,503.22c0-53.35-35.69-96.4-89.04-96.4s-88.67,42.68-88.67,96.03,35.69,96.4,88.67,96.4,89.04-43.05,89.04-96.03ZM1144.26,503.22c0,12.14-9.93,22.08-22.44,22.08s-22.08-9.93-22.08-22.08,9.93-22.44,22.08-22.44,22.44,9.93,22.44,22.44Z"/>
    <path class="st39" d="M1454.42,374.07v34.95h-168.88v-34.95h168.88ZM1430.13,485.56v34.22h-109.28v111.85h-35.32v-146.07h144.6Z"/>
    <path class="st31" d="M1664.87,374.07v34.95h-186.54v-34.95h186.54ZM1554.12,459.07h34.95v172.56h-34.95v-172.56Z"/>
  </g>
  <g class="st35">
    <path class="st36" d="M152.41,822.46l-29.68-93.94c-.09-.19-.14-.47-.14-.84,0-1.03.65-1.54,1.96-1.54h9.94c.56,0,1.07.16,1.54.49.47.33.75.77.84,1.33l22.96,76.3c.09.37.23.56.42.56s.33-.19.42-.56l22.82-76.3c.09-.56.37-1,.84-1.33s.98-.49,1.54-.49h9.66c1.68,0,2.29.79,1.82,2.38l-29.96,93.94c-.37,1.12-1.17,1.68-2.38,1.68h-10.22c-1.21,0-2.01-.56-2.38-1.68h0Z"/>
    <path class="st17" d="M213.1,739.79c-1.73-1.63-2.59-3.76-2.59-6.37s.86-4.74,2.59-6.37,3.94-2.45,6.65-2.45,4.9.82,6.58,2.45c1.68,1.63,2.52,3.76,2.52,6.37s-.84,4.74-2.52,6.37c-1.68,1.63-3.87,2.45-6.58,2.45s-4.92-.82-6.65-2.45ZM213.59,823.58c-.37-.37-.56-.89-.56-1.54v-67.06c0-.65.19-1.17.56-1.54s.89-.56,1.54-.56h9.24c.65,0,1.17.19,1.54.56s.56.89.56,1.54v67.06c0,.65-.19,1.17-.56,1.54s-.89.56-1.54.56h-9.24c-.65,0-1.17-.19-1.54-.56Z"/>
    <path class="st37" d="M285.83,753.72c1.03.56,1.4,1.45,1.12,2.66l-1.96,9.1c-.09.93-.56,1.4-1.4,1.4-.47,0-.84-.05-1.12-.14-1.4-.47-2.99-.7-4.76-.7-.93,0-1.63.05-2.1.14-4.39.19-8,1.7-10.85,4.55s-4.27,6.56-4.27,11.13v40.18c0,.65-.19,1.17-.56,1.54s-.89.56-1.54.56h-9.24c-.65,0-1.17-.19-1.54-.56-.37-.37-.56-.89-.56-1.54v-67.06c0-.65.19-1.17.56-1.54s.89-.56,1.54-.56h9.24c.65,0,1.17.19,1.54.56s.56.89.56,1.54v6.44c0,.37.07.58.21.63.14.05.3-.07.49-.35,4.2-6.35,9.89-9.52,17.08-9.52,2.8,0,5.32.51,7.56,1.54h0Z"/>
    <path class="st13" d="M335.11,763.38c-.37.37-.89.56-1.54.56h-14.28c-.47,0-.7.23-.7.7v36.54c0,4.01.86,6.86,2.59,8.54s4.5,2.52,8.33,2.52h3.36c.65,0,1.17.19,1.54.56.37.37.56.89.56,1.54v7.28c0,1.31-.7,2.05-2.1,2.24l-5.74.14c-7.19,0-12.55-1.26-16.1-3.78-3.55-2.52-5.32-7.23-5.32-14.14v-41.44c0-.47-.23-.7-.7-.7h-7.7c-.65,0-1.17-.19-1.54-.56s-.56-.89-.56-1.54v-6.86c0-.65.19-1.17.56-1.54s.89-.56,1.54-.56h7.7c.47,0,.7-.23.7-.7v-15.68c0-.65.19-1.17.56-1.54s.89-.56,1.54-.56h8.68c.65,0,1.17.19,1.54.56s.56.89.56,1.54v15.68c0,.47.23.7.7.7h14.28c.65,0,1.17.19,1.54.56s.56.89.56,1.54v6.86c0,.65-.19,1.17-.56,1.54h0Z"/>
    <path class="st24" d="M395.17,753.44c.37-.37.89-.56,1.54-.56h9.1c.65,0,1.17.19,1.54.56s.56.89.56,1.54v67.06c0,.65-.19,1.17-.56,1.54s-.89.56-1.54.56h-9.1c-.65,0-1.17-.19-1.54-.56-.37-.37-.56-.89-.56-1.54v-4.2c0-.28-.09-.44-.28-.49s-.37.02-.56.21c-3.73,5.04-9.43,7.56-17.08,7.56-4.57,0-8.8-.89-12.67-2.66-3.87-1.77-6.98-4.39-9.31-7.84s-3.5-7.65-3.5-12.6v-47.04c0-.65.19-1.17.56-1.54s.89-.56,1.54-.56h9.1c.65,0,1.17.19,1.54.56s.56.89.56,1.54v42.84c0,4.85,1.28,8.68,3.85,11.48,2.57,2.8,6.18,4.2,10.85,4.2s8.4-1.42,11.2-4.27c2.8-2.85,4.2-6.65,4.2-11.41v-42.84c0-.65.19-1.17.56-1.54h0Z"/>
    <path class="st28" d="M438.64,820.01c-5.09-3.5-8.66-8.38-10.71-14.63-1.68-5.04-2.52-10.73-2.52-17.08s.79-12.23,2.38-16.8c2.05-6.16,5.65-10.99,10.78-14.49s11.25-5.25,18.34-5.25c6.72,0,12.58,1.75,17.57,5.25,4.99,3.5,8.56,8.28,10.71,14.35,1.68,4.76,2.52,10.36,2.52,16.8s-.84,12.27-2.52,17.22c-2.05,6.25-5.6,11.13-10.64,14.63s-10.97,5.25-17.78,5.25-13.04-1.75-18.13-5.25ZM466.57,810.49c2.8-2.1,4.81-5.06,6.02-8.89,1.03-3.55,1.54-7.93,1.54-13.16s-.47-9.57-1.4-13.02c-1.21-3.83-3.22-6.79-6.02-8.89-2.8-2.1-6.21-3.15-10.22-3.15s-7.14,1.05-9.94,3.15c-2.8,2.1-4.81,5.06-6.02,8.89-1.03,3.27-1.54,7.61-1.54,13.02s.51,9.8,1.54,13.16c1.12,3.83,3.1,6.79,5.95,8.89s6.28,3.15,10.29,3.15c3.73,0,7-1.05,9.8-3.15h0Z"/>
    <path class="st6" d="M515.64,822.46c-4.25-1.68-7.54-3.99-9.87-6.93-2.33-2.94-3.5-6.18-3.5-9.73v-.84c0-.65.19-1.17.56-1.54s.89-.56,1.54-.56h8.68c.65,0,1.17.09,1.54.28.37.19.56.42.56.7v1.12c0,2.61,1.42,4.9,4.27,6.86,2.85,1.96,6.42,2.94,10.71,2.94s7.75-.91,10.36-2.73,3.92-4.13,3.92-6.93-1.21-4.74-3.64-6.09-6.35-2.78-11.76-4.27c-5.32-1.49-9.78-3.01-13.37-4.55-3.59-1.54-6.63-3.73-9.1-6.58-2.47-2.85-3.71-6.51-3.71-10.99,0-6.25,2.45-11.22,7.35-14.91s11.41-5.53,19.53-5.53c5.41,0,10.2.86,14.35,2.59,4.15,1.73,7.35,4.13,9.59,7.21,2.24,3.08,3.36,6.53,3.36,10.36,0,.56-.19,1-.56,1.33s-.89.49-1.54.49h-8.4c-.65,0-1.17-.09-1.54-.28s-.56-.42-.56-.7v-.84c0-2.71-1.33-4.97-3.99-6.79s-6.28-2.73-10.85-2.73c-4.11,0-7.44.79-10.01,2.38s-3.85,3.73-3.85,6.44,1.24,4.76,3.71,6.16c2.47,1.4,6.46,2.89,11.97,4.48,5.41,1.49,9.92,2.96,13.51,4.41,3.59,1.45,6.65,3.59,9.17,6.44,2.52,2.85,3.78,6.56,3.78,11.13,0,6.35-2.5,11.39-7.49,15.12s-11.69,5.6-20.09,5.6c-5.51,0-10.38-.84-14.63-2.52h0Z"/>
    <path class="st20" d="M584.66,820.01c-5.09-3.5-8.66-8.38-10.71-14.63-1.68-5.04-2.52-10.73-2.52-17.08s.79-12.23,2.38-16.8c2.05-6.16,5.65-10.99,10.78-14.49s11.25-5.25,18.34-5.25c6.72,0,12.58,1.75,17.57,5.25s8.56,8.28,10.71,14.35c1.68,4.76,2.52,10.36,2.52,16.8s-.84,12.27-2.52,17.22c-2.05,6.25-5.6,11.13-10.64,14.63s-10.97,5.25-17.78,5.25-13.04-1.75-18.13-5.25ZM612.59,810.49c2.8-2.1,4.81-5.06,6.02-8.89,1.03-3.55,1.54-7.93,1.54-13.16s-.47-9.57-1.4-13.02c-1.21-3.83-3.22-6.79-6.02-8.89-2.8-2.1-6.21-3.15-10.22-3.15s-7.14,1.05-9.94,3.15c-2.8,2.1-4.81,5.06-6.02,8.89-1.03,3.27-1.54,7.61-1.54,13.02s.51,9.8,1.54,13.16c1.12,3.83,3.1,6.79,5.95,8.89,2.85,2.1,6.28,3.15,10.29,3.15,3.73,0,7-1.05,9.8-3.15h0Z"/>
    <path class="st14" d="M681.47,823.58c-.37-.37-.56-.89-.56-1.54v-93.8c0-.65.19-1.17.56-1.54s.89-.56,1.54-.56h8.96c1.12,0,1.96.47,2.52,1.4l42.84,69.3c.19.28.37.4.56.35s.28-.26.28-.63v-68.32c0-.65.19-1.17.56-1.54s.89-.56,1.54-.56h9.24c.65,0,1.17.19,1.54.56s.56.89.56,1.54v93.8c0,.65-.19,1.17-.56,1.54s-.89.56-1.54.56h-9.1c-1.12,0-1.96-.47-2.52-1.4l-42.84-69.72c-.19-.28-.37-.4-.56-.35-.19.05-.28.26-.28.63l.14,68.74c0,.65-.19,1.17-.56,1.54s-.89.56-1.54.56h-9.24c-.65,0-1.17-.19-1.54-.56h0Z"/>
    <path class="st18" d="M818.95,804.96c.47-.84.98-1.26,1.54-1.26.47,0,.89.14,1.26.42l5.74,3.5c.75.47,1.12,1.07,1.12,1.82l-.28,1.12c-2.52,4.57-6.09,8.17-10.71,10.78s-10.01,3.92-16.17,3.92c-6.63,0-12.23-1.47-16.8-4.41-4.57-2.94-8.03-7.16-10.36-12.67-2.33-5.69-3.5-12.37-3.5-20.02,0-6.81.51-11.99,1.54-15.54,1.68-6.44,5.04-11.53,10.08-15.26,5.04-3.73,11.15-5.6,18.34-5.6,8.87,0,15.63,2.31,20.3,6.93s7.7,11.32,9.1,20.09c.47,3.45.79,7.65.98,12.6,0,1.4-.7,2.1-2.1,2.1h-44.24c-.47,0-.7.23-.7.7.19,3.55.51,6.07.98,7.56,1.03,3.73,3.08,6.67,6.16,8.82,3.08,2.15,6.91,3.22,11.48,3.22,7.56-.09,12.97-3.03,16.24-8.82h0ZM790.74,766.32c-2.57,1.96-4.32,4.67-5.25,8.12-.65,2.05-1.07,4.67-1.26,7.84,0,.47.23.7.7.7h31.78c.47,0,.7-.23.7-.7-.19-3.08-.47-5.37-.84-6.86-.93-3.64-2.78-6.56-5.53-8.75s-6.18-3.29-10.29-3.29-7.44.98-10.01,2.94h0Z"/>
    <path class="st34" d="M881.53,763.38c-.37.37-.89.56-1.54.56h-14.28c-.47,0-.7.23-.7.7v36.54c0,4.01.86,6.86,2.59,8.54,1.73,1.68,4.5,2.52,8.33,2.52h3.36c.65,0,1.17.19,1.54.56.37.37.56.89.56,1.54v7.28c0,1.31-.7,2.05-2.1,2.24l-5.74.14c-7.19,0-12.55-1.26-16.1-3.78s-5.32-7.23-5.32-14.14v-41.44c0-.47-.23-.7-.7-.7h-7.7c-.65,0-1.17-.19-1.54-.56s-.56-.89-.56-1.54v-6.86c0-.65.19-1.17.56-1.54s.89-.56,1.54-.56h7.7c.47,0,.7-.23.7-.7v-15.68c0-.65.19-1.17.56-1.54s.89-.56,1.54-.56h8.68c.65,0,1.17.19,1.54.56s.56.89.56,1.54v15.68c0,.47.23.7.7.7h14.28c.65,0,1.17.19,1.54.56s.56.89.56,1.54v6.86c0,.65-.19,1.17-.56,1.54h0Z"/>
    <path class="st10" d="M909.04,822.46c-4.25-1.68-7.54-3.99-9.87-6.93-2.33-2.94-3.5-6.18-3.5-9.73v-.84c0-.65.19-1.17.56-1.54s.89-.56,1.54-.56h8.68c.65,0,1.17.09,1.54.28.37.19.56.42.56.7v1.12c0,2.61,1.42,4.9,4.27,6.86,2.85,1.96,6.42,2.94,10.71,2.94s7.75-.91,10.36-2.73,3.92-4.13,3.92-6.93-1.21-4.74-3.64-6.09-6.35-2.78-11.76-4.27c-5.32-1.49-9.78-3.01-13.37-4.55-3.59-1.54-6.63-3.73-9.1-6.58-2.47-2.85-3.71-6.51-3.71-10.99,0-6.25,2.45-11.22,7.35-14.91,4.9-3.69,11.41-5.53,19.53-5.53,5.41,0,10.2.86,14.35,2.59,4.15,1.73,7.35,4.13,9.59,7.21s3.36,6.53,3.36,10.36c0,.56-.19,1-.56,1.33s-.89.49-1.54.49h-8.4c-.65,0-1.17-.09-1.54-.28s-.56-.42-.56-.7v-.84c0-2.71-1.33-4.97-3.99-6.79s-6.28-2.73-10.85-2.73c-4.11,0-7.44.79-10.01,2.38s-3.85,3.73-3.85,6.44,1.24,4.76,3.71,6.16c2.47,1.4,6.46,2.89,11.97,4.48,5.41,1.49,9.92,2.96,13.51,4.41,3.59,1.45,6.65,3.59,9.17,6.44,2.52,2.85,3.78,6.56,3.78,11.13,0,6.35-2.5,11.39-7.49,15.12s-11.69,5.6-20.09,5.6c-5.51,0-10.38-.84-14.63-2.52h0Z"/>
    <path class="st8" d="M978.06,820.01c-5.09-3.5-8.66-8.38-10.71-14.63-1.68-5.04-2.52-10.73-2.52-17.08s.79-12.23,2.38-16.8c2.05-6.16,5.65-10.99,10.78-14.49s11.25-5.25,18.34-5.25c6.72,0,12.58,1.75,17.57,5.25s8.56,8.28,10.71,14.35c1.68,4.76,2.52,10.36,2.52,16.8s-.84,12.27-2.52,17.22c-2.05,6.25-5.6,11.13-10.64,14.63s-10.97,5.25-17.78,5.25-13.04-1.75-18.13-5.25h0ZM1005.99,810.49c2.8-2.1,4.81-5.06,6.02-8.89,1.03-3.55,1.54-7.93,1.54-13.16s-.47-9.57-1.4-13.02c-1.21-3.83-3.22-6.79-6.02-8.89-2.8-2.1-6.21-3.15-10.22-3.15s-7.14,1.05-9.94,3.15c-2.8,2.1-4.81,5.06-6.02,8.89-1.03,3.27-1.54,7.61-1.54,13.02s.51,9.8,1.54,13.16c1.12,3.83,3.1,6.79,5.95,8.89,2.85,2.1,6.28,3.15,10.29,3.15,3.73,0,7-1.05,9.8-3.15h0Z"/>
    <path class="st26" d="M1065.21,740.56c-1.68,1.77-2.52,5.13-2.52,10.08v1.54c0,.47.23.7.7.7h13.86c.65,0,1.17.19,1.54.56s.56.89.56,1.54v8.12c0,.65-.19,1.17-.56,1.54s-.89.56-1.54.56h-13.86c-.47,0-.7.23-.7.7v56.14c0,.65-.19,1.17-.56,1.54s-.89.56-1.54.56h-9.24c-.65,0-1.17-.19-1.54-.56-.37-.37-.56-.89-.56-1.54v-56.14c0-.47-.23-.7-.7-.7h-8.54c-.65,0-1.17-.19-1.54-.56s-.56-.89-.56-1.54v-8.12c0-.65.19-1.17.56-1.54.37-.37.89-.56,1.54-.56h8.54c.47,0,.7-.23.7-.7v-2.38c0-6.16.72-10.92,2.17-14.28,1.45-3.36,3.9-5.76,7.35-7.21s8.31-2.17,14.56-2.17h4.06c.65,0,1.17.19,1.54.56s.56.89.56,1.54v7.56c0,.65-.19,1.17-.56,1.54-.37.37-.89.56-1.54.56h-2.66c-4.67,0-7.84.89-9.52,2.66h0Z"/>
    <path class="st23" d="M1129.33,763.38c-.37.37-.89.56-1.54.56h-14.28c-.47,0-.7.23-.7.7v36.54c0,4.01.86,6.86,2.59,8.54s4.5,2.52,8.33,2.52h3.36c.65,0,1.17.19,1.54.56.37.37.56.89.56,1.54v7.28c0,1.31-.7,2.05-2.1,2.24l-5.74.14c-7.19,0-12.55-1.26-16.1-3.78-3.55-2.52-5.32-7.23-5.32-14.14v-41.44c0-.47-.23-.7-.7-.7h-7.7c-.65,0-1.17-.19-1.54-.56s-.56-.89-.56-1.54v-6.86c0-.65.19-1.17.56-1.54s.89-.56,1.54-.56h7.7c.47,0,.7-.23.7-.7v-15.68c0-.65.19-1.17.56-1.54s.89-.56,1.54-.56h8.68c.65,0,1.17.19,1.54.56s.56.89.56,1.54v15.68c0,.47.23.7.7.7h14.28c.65,0,1.17.19,1.54.56s.56.89.56,1.54v6.86c0,.65-.19,1.17-.56,1.54h0Z"/>
    <path class="st19" d="M1229.5,729.57c4.34,2.38,7.7,5.72,10.08,10.01,2.38,4.29,3.57,9.24,3.57,14.84s-1.21,10.5-3.64,14.7-5.86,7.47-10.29,9.8-9.54,3.5-15.33,3.5h-24.5c-.47,0-.7.23-.7.7v38.92c0,.65-.19,1.17-.56,1.54s-.89.56-1.54.56h-9.24c-.65,0-1.17-.19-1.54-.56-.37-.37-.56-.89-.56-1.54v-93.94c0-.65.19-1.17.56-1.54s.89-.56,1.54-.56h37.1c5.69,0,10.71,1.19,15.05,3.57h0ZM1225.02,766.88c3.13-3.08,4.69-7.14,4.69-12.18s-1.56-9.26-4.69-12.39c-3.13-3.13-7.26-4.69-12.39-4.69h-23.24c-.47,0-.7.23-.7.7v32.48c0,.47.23.7.7.7h23.24c5.13,0,9.26-1.54,12.39-4.62Z"/>
    <path class="st30" d="M1274.37,822.46l-22.4-67.2c-.09-.19-.14-.47-.14-.84,0-1.03.61-1.54,1.82-1.54h10.36c.56,0,1.07.16,1.54.49.47.33.75.77.84,1.33l15.26,50.12c.09.37.23.54.42.49.19-.05.33-.26.42-.63l15.12-49.98c.09-.56.37-1,.84-1.33s.98-.49,1.54-.49l10.36.14c.75,0,1.26.21,1.54.63s.33,1,.14,1.75l-22.26,67.06c-.37,1.12-1.17,1.68-2.38,1.68h-10.64c-1.21,0-2.01-.56-2.38-1.68Z"/>
    <path class="st5" d="M1360.75,763.38c-.37.37-.89.56-1.54.56h-14.28c-.47,0-.7.23-.7.7v36.54c0,4.01.86,6.86,2.59,8.54s4.5,2.52,8.33,2.52h3.36c.65,0,1.17.19,1.54.56.37.37.56.89.56,1.54v7.28c0,1.31-.7,2.05-2.1,2.24l-5.74.14c-7.19,0-12.55-1.26-16.1-3.78-3.55-2.52-5.32-7.23-5.32-14.14v-41.44c0-.47-.23-.7-.7-.7h-7.7c-.65,0-1.17-.19-1.54-.56s-.56-.89-.56-1.54v-6.86c0-.65.19-1.17.56-1.54s.89-.56,1.54-.56h7.7c.47,0,.7-.23.7-.7v-15.68c0-.65.19-1.17.56-1.54s.89-.56,1.54-.56h8.68c.65,0,1.17.19,1.54.56s.56.89.56,1.54v15.68c0,.47.23.7.7.7h14.28c.65,0,1.17.19,1.54.56s.56.89.56,1.54v6.86c0,.65-.19,1.17-.56,1.54h0Z"/>
    <path class="st3" d="M1379.58,821.34c-1.91-1.87-2.87-4.2-2.87-7,0-2.61,1.03-4.85,3.08-6.72,2.05-1.87,4.39-2.8,7-2.8s4.97.93,7.07,2.8,3.15,4.11,3.15,6.72-.98,5.02-2.94,6.93-4.39,2.87-7.28,2.87-5.3-.93-7.21-2.8Z"/>
    <path class="st2" d="M1446.01,823.58c-.37-.37-.56-.89-.56-1.54v-93.8c0-.65.19-1.17.56-1.54.37-.37.89-.56,1.54-.56h9.24c.65,0,1.17.19,1.54.56s.56.89.56,1.54v83.58c0,.47.23.7.7.7h47.46c.65,0,1.17.19,1.54.56.37.37.56.89.56,1.54v7.42c0,.65-.19,1.17-.56,1.54s-.89.56-1.54.56h-59.5c-.65,0-1.17-.19-1.54-.56h0Z"/>
    <path class="st9" d="M1558.15,763.38c-.37.37-.89.56-1.54.56h-14.28c-.47,0-.7.23-.7.7v36.54c0,4.01.86,6.86,2.59,8.54s4.5,2.52,8.33,2.52h3.36c.65,0,1.17.19,1.54.56.37.37.56.89.56,1.54v7.28c0,1.31-.7,2.05-2.1,2.24l-5.74.14c-7.19,0-12.55-1.26-16.1-3.78-3.55-2.52-5.32-7.23-5.32-14.14v-41.44c0-.47-.23-.7-.7-.7h-7.7c-.65,0-1.17-.19-1.54-.56s-.56-.89-.56-1.54v-6.86c0-.65.19-1.17.56-1.54s.89-.56,1.54-.56h7.7c.47,0,.7-.23.7-.7v-15.68c0-.65.19-1.17.56-1.54s.89-.56,1.54-.56h8.68c.65,0,1.17.19,1.54.56s.56.89.56,1.54v15.68c0,.47.23.7.7.7h14.28c.65,0,1.17.19,1.54.56s.56.89.56,1.54v6.86c0,.65-.19,1.17-.56,1.54h0Z"/>
    <path class="st1" d="M1618.63,726.7c.37-.37.89-.56,1.54-.56h9.24c.65,0,1.17.19,1.54.56s.56.89.56,1.54v93.8c0,.65-.19,1.17-.56,1.54s-.89.56-1.54.56h-9.24c-.65,0-1.17-.19-1.54-.56-.37-.37-.56-.89-.56-1.54v-3.64c0-.28-.09-.47-.28-.56-.19-.09-.37-.05-.56.14-2.05,2.33-4.46,4.13-7.21,5.39s-5.76,1.89-9.03,1.89c-6.72,0-12.3-1.66-16.73-4.97-4.43-3.31-7.68-8-9.73-14.07-1.68-4.67-2.52-10.64-2.52-17.92,0-6.81.7-12.46,2.1-16.94,1.96-6.16,5.2-10.97,9.73-14.42s10.24-5.18,17.15-5.18c3.27,0,6.28.61,9.03,1.82s5.16,2.99,7.21,5.32c.19.19.37.26.56.21.19-.05.28-.21.28-.49v-30.38c0-.65.19-1.17.56-1.54h0ZM1617.93,788.44c0-7.65-1.21-13.63-3.64-17.92-2.71-4.76-6.67-7.14-11.9-7.14s-9.57,2.24-12.46,6.72c-2.99,4.67-4.48,10.83-4.48,18.48,0,7.19,1.17,12.97,3.5,17.36,2.71,5.13,7.19,7.7,13.44,7.7,5.32,0,9.38-2.52,12.18-7.56,2.24-4.11,3.36-9.99,3.36-17.64h0Z"/>
    <path class="st7" d="M1651.46,821.34c-1.91-1.87-2.87-4.2-2.87-7,0-2.61,1.03-4.85,3.08-6.72,2.05-1.87,4.39-2.8,7-2.8s4.97.93,7.07,2.8,3.15,4.11,3.15,6.72-.98,5.02-2.94,6.93-4.39,2.87-7.28,2.87-5.3-.93-7.21-2.8Z"/>
  </g>
  <g class="st21">
    <text class="st22" transform="translate(2396.57 -247.08)"><tspan x="0" y="0">Virtuoso Netsoft Pvt. Ltd.</tspan></text>
  </g>
</svg>